<svg version="1.1" id="Layer_1" xmlns="http://www.w3.org/2000/svg" xmlns:xlink="http://www.w3.org/1999/xlink" x="0px" y="0px"
	 width="612px" height="792px" viewBox="0 0 612 792" enable-background="new 0 0 612 792" xml:space="preserve">
<g id="outer-circle">
	<path fill-rule="evenodd" clip-rule="evenodd" fill="#21E8B3" d="M316.616,132.372c139.339,0,252.293,112.954,252.293,252.292
		c0,139.336-112.954,252.292-252.293,252.292c-139.336,0-252.292-112.956-252.292-252.292
		C64.324,245.326,177.28,132.372,316.616,132.372L316.616,132.372z"/>
</g>
<g id="inner-circle">
	<path fill-rule="evenodd" clip-rule="evenodd" fill="#FFFFFF" d="M273.79,592.643c-13.611-2.785-27-6.941-39.794-12.352
		c-12.57-5.318-24.698-11.901-36.045-19.567c-11.249-7.599-21.83-16.329-31.446-25.946c-9.618-9.616-18.348-20.197-25.947-31.446
		c-7.666-11.348-14.249-23.476-19.567-36.046c-5.411-12.793-9.567-26.183-12.352-39.794c-2.862-13.988-4.313-28.396-4.313-42.827
		s1.452-28.838,4.313-42.827c2.785-13.613,6.941-27.001,12.352-39.796c5.318-12.571,11.901-24.698,19.567-36.043
		c7.599-11.251,16.329-21.83,25.947-31.448c9.616-9.616,20.195-18.346,31.446-25.945c11.348-7.666,23.475-14.251,36.045-19.567
		c12.793-5.411,26.183-9.567,39.794-12.352c13.989-2.862,28.397-4.313,42.827-4.313c14.431,0,28.839,1.452,42.827,4.313
		c13.613,2.785,27.001,6.941,39.796,12.352c12.571,5.316,24.698,11.901,36.046,19.567c11.249,7.599,21.828,16.329,31.446,25.945
		c9.616,9.618,18.346,20.197,25.944,31.446c7.666,11.347,14.251,23.475,19.567,36.045c5.411,12.795,9.566,26.183,12.352,39.796
		c2.862,13.989,4.313,28.397,4.313,42.827s-1.451,28.838-4.313,42.827c-2.785,13.611-6.94,27.001-12.352,39.794
		c-5.316,12.57-11.901,24.698-19.567,36.046c-7.599,11.251-16.328,21.83-25.944,31.446c-9.618,9.617-20.197,18.348-31.448,25.946
		c-11.346,7.666-23.473,14.249-36.044,19.567c-12.795,5.41-26.183,9.566-39.796,12.352c-13.988,2.862-28.396,4.313-42.827,4.313
		C302.187,596.956,287.778,595.505,273.79,592.643"/>
</g>
<g id="e-paths">
	<g>
		<polygon fill-rule="evenodd" clip-rule="evenodd" fill="#21E8B3" points="242.627,281.547 267.991,281.547 267.991,479.446 
			242.627,479.446 242.627,281.547 		"/>
	</g>
	<g>
		<polygon fill-rule="evenodd" clip-rule="evenodd" fill="#21E8B3" points="381.099,270.459 381.099,295.555 219.211,295.555 
			219.211,270.459 381.099,270.459 		"/>
	</g>
	<g>
		<path fill-rule="evenodd" clip-rule="evenodd" fill="#21E8B3" d="M400.227,259.79c12.724,0,23.039,10.315,23.039,23.04
			s-10.315,23.04-23.039,23.04c-12.725,0-23.04-10.315-23.04-23.04S387.502,259.79,400.227,259.79L400.227,259.79z"/>
	</g>
	<g>
		<path fill-rule="evenodd" clip-rule="evenodd" fill="#21E8B3" d="M348.227,359.789c12.724,0,23.039,10.315,23.039,23.04
			s-10.315,23.04-23.039,23.04c-12.725,0-23.04-10.315-23.04-23.04S335.502,359.789,348.227,359.789L348.227,359.789z"/>
	</g>
	<g>
		<polygon fill-rule="evenodd" clip-rule="evenodd" fill="#21E8B3" points="329.612,370.274 329.612,395.34 219.213,395.34 
			219.213,370.274 329.612,370.274 		"/>
	</g>
	<g>
		<path fill-rule="evenodd" clip-rule="evenodd" fill="#21E8B3" d="M400.227,458.79c12.724,0,23.039,10.315,23.039,23.039
			c0,12.725-10.315,23.04-23.039,23.04c-12.725,0-23.04-10.315-23.04-23.04C377.187,469.105,387.502,458.79,400.227,458.79
			L400.227,458.79z"/>
	</g>
	<g>
		<polygon fill-rule="evenodd" clip-rule="evenodd" fill="#21E8B3" points="381.099,469.072 381.099,494.138 219.211,494.138 
			219.211,469.072 381.099,469.072 		"/>
	</g>
</g>
</svg>
